<?xml version="1.0" encoding="utf-8"?>
<!-- Generator: Adobe Illustrator 25.4.1, SVG Export Plug-In . SVG Version: 6.00 Build 0)  -->
<svg version="1.1" id="Jeedom-Atlas-Recovery-Logo" xmlns="http://www.w3.org/2000/svg" xmlns:xlink="http://www.w3.org/1999/xlink"
	 x="0px" y="0px" viewBox="0 0 2000 1180" style="enable-background:new 0 0 2000 1180;" xml:space="preserve">
<style type="text/css">
	.st0{enable-background:new    ;}
	.st1{fill:#94C11F;}
	.st2{fill:#464449;}
</style>
<g id="Jeedom-Atlas">
	<g id="JEEDOM_00000053510470658088478230000013061239091257182654_" class="st0">
		<path class="st1" d="M1582.6,594.6h87.2l33.6,142.4l33.4-142.4h87.2v234.1h-54.3V650.2l-41.9,178.5h-49.2L1637,650.2v178.5h-54.3
			L1582.6,594.6L1582.6,594.6z"/>
		<path class="st1" d="M1325.2,711.8c0-38.2,9.8-68,29.3-89.3s46.7-31.9,81.6-31.9c35.7,0,63.3,10.5,82.6,31.4
			c19.3,20.9,29,50.2,29,87.9c0,27.4-4.2,49.8-12.7,67.3c-8.4,17.5-20.6,31.1-36.6,40.9c-16,9.7-35.9,14.6-59.7,14.6
			c-24.2,0-44.3-4.2-60.1-12.6c-15.9-8.4-28.7-21.7-38.6-39.9C1330.1,761.9,1325.2,739.2,1325.2,711.8z M1391.5,712.1
			c0,23.6,4,40.6,12.1,50.9c8.1,10.3,19,15.5,32.9,15.5c14.3,0,25.3-5.1,33.1-15.2c7.8-10.1,11.7-28.3,11.7-54.5
			c0-22-4.1-38.1-12.2-48.3c-8.2-10.2-19.2-15.3-33.2-15.3c-13.4,0-24.1,5.2-32.2,15.5C1395.5,671.2,1391.5,688.3,1391.5,712.1z"/>
		<path class="st1" d="M1101.1,594.6h98.6c19.4,0,35.1,2.9,47.1,8.6c12,5.7,21.8,14,29.7,24.8c7.8,10.8,13.5,23.3,17,37.5
			c3.5,14.3,5.3,29.4,5.3,45.4c0,25-2.6,44.4-7.8,58.2c-5.2,13.8-12.5,25.3-21.7,34.7c-9.3,9.3-19.2,15.5-29.9,18.6
			c-14.5,4.3-27.7,6.4-39.5,6.4h-98.6V594.6H1101.1z M1167.4,647.6v127.9h16.3c13.9,0,23.7-1.7,29.6-5c5.9-3.4,10.4-9.2,13.8-17.6
			c3.3-8.4,5-21.9,5-40.6c0-24.8-3.7-41.8-11.1-50.9c-7.4-9.2-19.7-13.7-36.9-13.7L1167.4,647.6L1167.4,647.6z"/>
		<path class="st2" d="M883.5,594.6h177.8v50H949.9v37.2h103.2v47.7H949.9v46.2h114.5v53h-181L883.5,594.6L883.5,594.6z"/>
		<path class="st2" d="M666.9,594.6h177.8v50H733.3v37.2h103.2v47.7H733.3v46.2h114.5v53h-181V594.6H666.9z"/>
		<path id="maison_00000096039699524270252530000012460022452048281785_" class="st2" d="M187.7,824.9c-3.5-3.8-4-11.3-4-55.2
			c0-36.2,0.8-51.6,2.9-53.6c4-4,50.7-4,54.7,0c1.9,1.9,2.9,11.4,2.9,26.6v23.7H289h44.8v-30.2V706h31.5h31.5v56.4
			c0,55.9-0.1,56.5-5.6,61.7c-5.6,5.2-6.3,5.3-102.5,5.3C197.8,829.3,191.5,829,187.7,824.9L187.7,824.9z M276,690.3l-12.4-13.2
			V564.5V451.9h17.5h17.5l35.9-47.2l35.9-47.2H435h64.5l53.8,68.8l53.8,68.8v93.8v93.8l-10.2,10.4l-10.2,10.4h-93.9H399v-88.3v-88.3
			h-33.9h-33.9v88.3v88.3h-21.4h-21.4L276,690.3L276,690.3z M401.5,470v-30.2h-35.1h-35.1V470v30.2h35.1h35.1V470z M552.5,407.7
			C489,326.2,436.6,259,436,258.4s-2.9,1.2-5.1,4c-2.2,2.9-34.6,44.5-71.8,92.4L291.4,442l-57.7,0.1l-57.7,0.1l6.9-9.1
			c41.1-54.4,251.2-326.2,252.6-326.7c2.4-0.9,0.5-3.4,315.4,409l30.9,40.5h-56.9H668L552.5,407.7z M639.1,352.2l-48.9-63.3V247
			v-41.9h49.6h49.6v105.2c0,57.9-0.3,105.2-0.7,105.2C688.3,415.6,666,387.1,639.1,352.2z M691.8,202.8c0-1.2,2.3-3,5-3.8
			s7.1-5,9.7-9.2c8.7-14.3,5-26.4-11.3-36.7c-13.6-8.6-11.9-11.1,2-2.9c13.8,8.1,18.8,14,20.4,24.1c1.2,7.5,0.2,9.7-9.4,19.7
			C698.1,204.5,691.8,207.9,691.8,202.8L691.8,202.8z M676.8,129.8c0.9-5.8,1.6-6.7,3.2-3.8c1.2,2.1,1.4,5.5,0.6,7.6
			C678.1,140.1,675.6,137.7,676.8,129.8L676.8,129.8z M552.5,407.7C489,326.2,436.6,259,436,258.4s-2.9,1.2-5.1,4
			c-2.2,2.9-34.6,44.5-71.8,92.4L291.4,442l-57.7,0.1l-57.7,0.1l6.9-9.1c41.1-54.4,251.2-326.2,252.6-326.7
			c2.4-0.9,0.5-3.4,315.4,409l30.9,40.5h-56.9H668L552.5,407.7z"/>
		<path id="maison_00000038376216554046218250000005721029950774388122_" class="st1" d="M552.5,407.7
			C489,326.2,436.6,259,436,258.4s-2.9,1.2-5.1,4c-2.2,2.9-34.6,44.5-71.8,92.4L291.4,442l-57.7,0.1l-57.7,0.1l6.9-9.1
			c41.1-54.4,251.2-326.2,252.6-326.7c2.4-0.9,0.5-3.4,315.4,409l30.9,40.5h-56.9H668L552.5,407.7z M552.5,407.7
			C489,326.2,436.6,259,436,258.4s-2.9,1.2-5.1,4c-2.2,2.9-34.6,44.5-71.8,92.4L291.4,442l-57.7,0.1l-57.7,0.1l6.9-9.1
			c41.1-54.4,251.2-326.2,252.6-326.7c2.4-0.9,0.5-3.4,315.4,409l30.9,40.5h-56.9H668L552.5,407.7z"/>
	</g>
	<g id="Atlas_00000169526471173104023670000017102744385335210404_">
		<path class="st2" d="M1815.9,367.3V404h-105.1c-8.9,0-15.2,1.8-19.1,5.4c-3.8,3.6-5.8,9-5.8,16.2c0,6.7,1.9,11.8,5.6,15.3
			s10.9,5.2,21.4,5.2h44.6c13.2,0,24.1,1.4,32.6,4.3s15.2,6.7,20.2,11.5c4.9,4.8,8.3,10.4,10.3,16.9c1.9,6.5,2.9,13.4,2.9,20.9
			c0,8.4-1.1,16.1-3.4,23.2s-5.9,13.1-11,18.2c-5,5-11.5,9-19.4,11.9s-17.4,4.3-28.4,4.3h-110.5v-37.1h110.5
			c8.9,0,15.2-1.6,19.1-4.9c3.8-3.2,5.8-8.6,5.8-16c0-7.7-2.1-13.1-6.3-16.4c-4.2-3.2-11.1-4.9-20.7-4.9h-45
			c-13.2,0-24-1.5-32.4-4.5s-15.1-7.1-20-12.2c-4.9-5.2-8.3-11.1-10.3-17.8c-1.9-6.7-2.9-13.7-2.9-20.9c0-17,4.8-30.5,14.4-40.5
			s25.4-14.9,47.5-14.9L1815.9,367.3L1815.9,367.3z"/>
		<path class="st2" d="M1533.5,367.3c11.8,0,21.8,1.6,30.2,4.7c8.4,3.1,15.3,7.5,20.7,13.1c5.4,5.6,9.3,12.3,11.7,20
			c2.4,7.7,3.6,16,3.6,24.8v89.3c0,7-0.5,12.8-1.6,17.6s-3.1,8.7-5.9,11.7c-2.9,3-6.9,5.2-12.1,6.7c-5.2,1.4-11.7,2.2-19.6,2.2
			h-88.9c-22.6,0-38.8-5.2-48.8-15.5s-14.9-24.5-14.9-42.5c0-8.6,1.1-16.3,3.4-23s5.9-12.4,11-17.1c5-4.7,11.6-8.3,19.8-10.8
			c8.2-2.5,18.1-3.8,29.9-3.8h90.3v-14.4c0-7.4-2.2-13.7-6.7-18.7c-4.4-5-11.9-7.6-22.5-7.6h-113.7v-36.7L1533.5,367.3L1533.5,367.3
			z M1551.9,520.3c7,0,10.4-3.2,10.4-9.7V475h-89.6c-10.1,0-17.2,2-21.2,5.9c-4.1,4-6.1,9.4-6.1,16.4s2,12.5,6.1,16.7
			c4.1,4.2,10.9,6.3,20.5,6.3L1551.9,520.3L1551.9,520.3z"/>
		<path class="st2" d="M1357.1,284.9v272.5H1319V284.9H1357.1z"/>
		<path class="st2" d="M1175.7,367.3v-45h38.5v45h52.6V404h-52.6v90c0,10.8,2,18.2,5.9,22.3c4,4.1,10.5,6.1,19.6,6.1h26.3v34.9
			h-34.2c-9.8,0-18.3-1.1-25.4-3.2c-7.1-2.2-12.9-5.8-17.5-10.8s-7.9-11.8-10.1-20.2s-3.2-18.8-3.2-31.3V404h-25.9v-36.7H1175.7z"/>
		<path class="st2" d="M928.2,556h-44.4l81-205.1c4.3-10.9,10.4-18.6,18.3-23.1c7.9-4.4,17.9-6.7,30.2-6.7c12.1,0,22,2.2,29.9,6.7
			c7.9,4.4,13.8,12.1,17.9,23.1L1139,556h-44.8l-70.1-185.6c-2.1-5.2-5.8-7.9-11.3-7.9s-9.3,2.6-11.6,7.9L928.2,556z"/>
	</g>
</g>
<g id="Recovery">
	<path class="st1" d="M786.3,952.4c4.2-3.3,7.7-7.1,10.4-11.4c2.7-4.3,4.6-9,5.9-13.9c1.3-5,1.9-10,1.9-15c0-6.3-1-12.4-3-18.2
		s-5-10.9-9.2-15.2s-9.5-7.8-15.9-10.4c-6.5-2.6-14.2-3.9-23.1-3.9h-86.4v2.1l0,0v100h0.2v57.2H695v-57.6c0-2.7,1.3-4,4-4h41.5
		l36.3,61.6h30.9L770.6,960C776.8,958.2,782,955.7,786.3,952.4z M764.3,933.5c-2.8,1.3-6.2,1.9-10.1,1.9H695v-43.2h59.2
		c7.7,0,13.3,2.1,16.9,6.3c3.5,4.2,5.3,9.1,5.3,14.8c0,2.8-0.4,5.6-1.3,8.3c-0.9,2.7-2.2,5-3.9,7.1
		C769.4,930.6,767.1,932.2,764.3,933.5z"/>
	<path class="st1" d="M906.9,973.1c15.3,0,26.1-3.1,32.6-9.3s9.7-15.1,9.7-26.6c0-12.1-3.3-21.5-9.9-28.2c-6.6-6.7-17.3-10-32.1-10
		h-40.4c-7.9,0-14.5,1-19.9,3.1c-5.4,2-9.9,4.9-13.5,8.6c-3.5,3.7-6.1,8.1-7.7,13.1c-1.6,5-2.4,10.5-2.4,16.3v42.5
		c0,6,0.8,11.4,2.4,16.4c1.6,5,4.1,9.3,7.7,13c3.5,3.7,8,6.6,13.5,8.6c5.4,2,12.1,3.1,19.9,3.1H943v-24.3h-76.2
		c-6.9,0-11.8-1.6-14.8-4.8c-2.9-3.2-4.4-7.4-4.4-12.4v-9L906.9,973.1L906.9,973.1z M847.6,940.3c0-4.9,1.5-9,4.4-12.3s7.8-5,14.8-5
		h40.1c6.1,0,10.6,1.4,13.5,4.2c2.8,2.8,4.2,6.6,4.2,11.3c0,4.6-1.4,8.2-4.1,10.9c-2.8,2.7-7.5,4-14.3,4h-58.5v-13.1H847.6z"/>
	<path class="st1" d="M988.4,914.4c-9.7,10.2-14.5,25.9-14.5,47s4.8,36.7,14.5,47c9.7,10.2,22.9,15.3,39.5,15.3h64.2v-24.3h-61.8
		c-10.9,0-18.8-3-23.7-8.9c-5-5.9-7.4-15.6-7.4-29.2c0-13.5,2.5-23.3,7.4-29.3c5-6,12.9-9,23.7-9h61.8v-24H1028
		C1011.3,899,998.1,904.1,988.4,914.4z"/>
	<path class="st1" d="M1196.3,899h-26.2c-16.7,0-29.9,5.1-39.5,15.3c-9.7,10.2-14.5,25.9-14.5,47s4.8,36.7,14.5,47
		c9.7,10.2,22.9,15.3,39.5,15.3h26.2c16.5,0,29.7-5.1,39.4-15.3c9.8-10.2,14.6-25.9,14.6-47c0-20.9-4.9-36.5-14.6-46.9
		C1225.9,904.2,1212.8,899,1196.3,899z M1217.6,990.5c-5,5.9-12.9,8.9-23.7,8.9h-21.5c-10.9,0-18.8-3-23.7-8.9
		c-5-5.9-7.4-15.6-7.4-29.2c0-13.5,2.5-23.3,7.4-29.3c5-6,12.9-9,23.7-9h21.5c10.9,0,18.8,3,23.7,9c5,6,7.4,15.7,7.4,29.3
		C1225.1,974.9,1222.6,984.6,1217.6,990.5z"/>
	<path class="st1" d="M1340.5,999.1c-1.1,2.5-3.3,3.8-6.6,3.8c-3.2,0-5.2-1.3-6.1-3.8L1286.2,899h-26.4l45.8,111.2
		c2.4,5.8,5.9,10,10.5,12.5c4.6,2.5,10.6,3.8,17.8,3.8c7.1,0,12.9-1.2,17.6-3.7c4.6-2.4,8.3-6.6,11-12.6l48.2-111.2h-26.9
		L1340.5,999.1z"/>
	<path class="st1" d="M1506.9,973.1c15.3,0,26.1-3.1,32.6-9.3s9.7-15.1,9.7-26.6c0-12.1-3.3-21.5-9.9-28.2s-17.3-10-32.1-10h-40.4
		c-7.9,0-14.5,1-19.9,3.1c-5.4,2-9.9,4.9-13.5,8.6c-3.5,3.7-6.1,8.1-7.7,13.1s-2.4,10.5-2.4,16.3v42.5c0,6,0.8,11.4,2.4,16.4
		s4.1,9.3,7.7,13c3.5,3.7,8,6.6,13.5,8.6c5.4,2,12.1,3.1,19.9,3.1h76.2v-24.3h-76.2c-6.9,0-11.8-1.6-14.8-4.8
		c-2.9-3.2-4.4-7.4-4.4-12.4v-9L1506.9,973.1L1506.9,973.1z M1447.6,940.3c0-4.9,1.5-9,4.4-12.3s7.8-5,14.8-5h40.1
		c6.1,0,10.6,1.4,13.5,4.2c2.8,2.8,4.2,6.6,4.2,11.3c0,4.6-1.4,8.2-4.1,10.9c-2.8,2.7-7.5,4-14.3,4h-58.5L1447.6,940.3L1447.6,940.3
		z"/>
	<path class="st1" d="M1587.3,907.8c-5.1,5.8-7.7,15-7.7,27.6v88.3h25v-84.5c0-10.7,5.3-16.1,16.1-16.1h43.9V899h-51.2
		C1601.1,899,1592.4,901.9,1587.3,907.8z"/>
	<path class="st1" d="M1797.4,899l-42.3,98h-3.3c-2.4,0-4-0.3-5-0.9c-0.9-0.6-1.8-2-2.6-4.2l-37.5-92.8h-26.4l41.8,104.8
		c2,5.5,4.7,9.4,7.9,11.8c3.2,2.4,8.4,3.5,15.5,3.5l-23.4,54.5h26.9l75.1-174.7L1797.4,899L1797.4,899z"/>
</g>
</svg>
